<svg width="487" height="218" viewBox="0 0 487 218" fill="none" xmlns="http://www.w3.org/2000/svg">
<path d="M113.7 9.39369e-05C130.1 9.39369e-05 145.1 2.70009 158.7 8.10008C172.5 13.5001 184.5 21.1001 194.7 30.9001C205.1 40.7001 213.1 52.2001 218.7 65.4001C224.5 78.4001 227.4 92.6001 227.4 108C227.4 123.6 224.5 138.1 218.7 151.5C213.1 164.7 205.1 176.3 194.7 186.3C184.5 196.1 172.5 203.8 158.7 209.4C145.1 214.8 130.1 217.5 113.7 217.5C97.5001 217.5 82.5001 214.8 68.7001 209.4C54.9001 203.8 42.8001 196.1 32.4001 186.3C22.2001 176.3 14.2001 164.7 8.4001 151.5C2.8001 138.1 9.82285e-05 123.6 9.82285e-05 108C9.82285e-05 92.6001 2.8001 78.3001 8.4001 65.1001C14.2001 51.9001 22.2001 40.5001 32.4001 30.9001C42.8001 21.1001 54.9001 13.5001 68.7001 8.10008C82.5001 2.70009 97.5001 9.39369e-05 113.7 9.39369e-05ZM114.3 45.9001C106.5 45.9001 99.0001 47.5001 91.8001 50.7001C84.8001 53.7001 78.6001 58.1001 73.2001 63.9001C68.0001 69.5001 63.9001 76.1001 60.9001 83.7001C57.9001 91.1001 56.4001 99.3001 56.4001 108.3C56.4001 117.1 57.9001 125.4 60.9001 133.2C63.9001 140.8 68.1001 147.5 73.5001 153.3C78.9001 158.9 85.1001 163.3 92.1001 166.5C99.1001 169.7 106.5 171.3 114.3 171.3C122.1 171.3 129.4 169.7 136.2 166.5C143.2 163.3 149.3 158.9 154.5 153.3C159.7 147.5 163.7 140.8 166.5 133.2C169.5 125.4 171 117.1 171 108.3C171 99.3001 169.5 91.1001 166.5 83.7001C163.7 76.1001 159.7 69.5001 154.5 63.9001C149.3 58.1001 143.2 53.7001 136.2 50.7001C129.4 47.5001 122.1 45.9001 114.3 45.9001ZM284.613 3.30009H339.513V95.7001L418.413 3.30009H482.013L339.513 161.1V213.6H284.613V3.30009ZM399.813 84.0001L486.813 213.6H421.113L363.213 127.2L399.813 84.0001Z" fill="black"/>
</svg>
