<?xml version="1.0" encoding="UTF-8"?>
<svg version="1.1" xmlns="http://www.w3.org/2000/svg" width="512" height="512" fill="currentColor">
<path d="M0 0 C5.95655326 4.81780043 9.88967179 10.76564814 10.87525499 18.49743748 C10.98528843 20.92101788 11.00634147 23.32895531 10.99247742 25.75500488 C10.99912424 26.67655601 11.00577107 27.59810714 11.01261932 28.54758406 C11.03118942 31.61842529 11.02864804 34.68887484 11.02612305 37.75976562 C11.03514384 39.9678197 11.04547184 42.17586876 11.05700684 44.38391113 C11.08456544 50.36673093 11.09385987 56.34945566 11.09986091 62.3323307 C11.10924746 68.58906439 11.13545114 74.84572716 11.15986633 81.10241699 C11.19856829 91.60016532 11.22692452 102.09790532 11.24731445 112.59570312 C11.26833908 123.4056268 11.29562708 134.21550493 11.33129883 145.02539062 C11.33349765 145.69237585 11.33569648 146.35936107 11.33796193 147.04655796 C11.34903196 150.3928252 11.36023139 153.73909197 11.37147844 157.08535862 C11.46431878 184.81988789 11.53600238 212.55443953 11.59375 240.2890625 C12.4470842 239.43128708 13.3004184 238.57351166 14.17961121 237.68974304 C22.22253693 229.60627211 30.2707398 221.52808865 38.32413769 213.45505047 C42.4642841 209.30446737 46.60254963 205.15204453 50.73657227 200.99536133 C54.72626518 196.98393624 58.72082519 192.97741782 62.71880531 188.9742527 C64.24317047 187.44619249 65.76577434 185.91637316 67.28658104 184.38477135 C69.41712938 182.23970343 71.55385674 180.10097806 73.69213867 177.96362305 C74.31936325 177.32920792 74.94658783 176.69479279 75.59281921 176.04115295 C81.30674902 170.35396495 86.1627505 167.22407682 94.34375 166.9765625 C100.67499768 167.07882935 105.0026816 168.79509528 109.57421875 173.1953125 C115.60368612 179.85880633 116.97513514 184.04065334 116.86328125 193.0703125 C116.52393863 197.12275189 115.5610219 199.76436702 113.59375 203.2890625 C112.93375 203.2890625 112.27375 203.2890625 111.59375 203.2890625 C111.35110413 203.85605393 111.10845825 204.42304537 110.85845947 205.00721836 C109.34902833 207.73060003 107.55475254 209.58902184 105.35839844 211.79856873 C104.46978622 212.69715607 103.58117401 213.59574341 102.66563416 214.52156067 C101.67824334 215.50984726 100.69073637 216.49801781 99.703125 217.48608398 C98.66448779 218.5323446 97.62625418 219.57900602 96.58839417 220.6260376 C93.76854787 223.46782507 90.94215945 226.30301639 88.1138649 229.13639331 C86.34486466 230.90903929 84.57716929 232.68297604 82.80990601 234.45735359 C76.63762035 240.65413793 70.45963003 246.84517569 64.27685547 253.03149414 C58.52561765 258.78636167 52.7876258 264.55420752 47.05557442 270.32817978 C42.12589978 275.2926308 37.1865655 280.24733386 32.23982048 285.19477516 C29.28918134 288.14620498 26.34260372 291.10142396 23.40588379 294.06670952 C20.63933868 296.85955921 17.86089521 299.64001489 15.0731945 302.41174316 C14.0571043 303.42602838 13.04519913 304.44452792 12.03805733 305.46769905 C5.09582689 312.51355052 -2.07161216 319.27885058 -12.40625 319.9140625 C-23.61384596 319.22177894 -31.10694899 311.3116366 -38.57568359 303.75073242 C-39.65336198 302.67820239 -40.73210815 301.60674438 -41.81182861 300.53627014 C-44.7197368 297.64676383 -47.61183493 294.74191158 -50.50066328 291.83334517 C-53.53653562 288.78099839 -56.58508786 285.74135888 -59.63174438 282.69978333 C-64.7426667 277.59337113 -69.84334486 272.4768985 -74.93798828 267.35424805 C-80.81741472 261.44274905 -86.71273709 255.54747672 -92.61683023 249.66062087 C-98.3125457 243.98079855 -103.99686533 238.28970097 -109.6761055 232.59340858 C-112.08621492 230.17644984 -114.50019508 227.76345909 -116.91743088 225.35362816 C-119.76504574 222.51370518 -122.60250261 219.66399832 -125.4325943 216.80661583 C-126.46916632 215.76319032 -127.50910209 214.72309341 -128.5527153 213.68671036 C-140.62111367 201.69228416 -140.62111367 201.69228416 -141.90234375 192.875 C-141.75127945 184.59667629 -140.84440087 179.77544311 -135.15625 173.6015625 C-129.42002143 168.19994726 -124.03745645 166.96487188 -116.34765625 166.79296875 C-108.68962039 168.08456311 -103.43833981 172.67982577 -98.1640625 178.07714844 C-97.15281563 179.08751915 -97.15281563 179.08751915 -96.12113953 180.11830139 C-93.91488361 182.32732419 -91.72310391 184.55013192 -89.53125 186.7734375 C-87.99656389 188.3155909 -86.46098706 189.85685836 -84.92456055 191.39727783 C-80.89783041 195.43922551 -76.8832618 199.49304327 -72.87115479 203.54949951 C-68.76907323 207.69261712 -64.65553837 211.82432885 -60.54296875 215.95703125 C-52.48618122 224.05662124 -44.44220265 232.1688046 -36.40625 240.2890625 C-36.40386165 239.1429226 -36.40147329 237.9967827 -36.39901257 236.81591129 C-36.34020834 208.9230311 -36.26431971 181.03023723 -36.17053509 153.13745213 C-36.16156385 150.45174237 -36.1526562 147.7660324 -36.14379883 145.08032227 C-36.14159514 144.41278535 -36.13939146 143.74524844 -36.137121 143.05748313 C-36.10177759 132.2580096 -36.07689679 121.45853614 -36.05590298 110.65902627 C-36.03411734 99.57238693 -36.00081929 88.48581803 -35.95754844 77.39924091 C-35.93361591 71.17432125 -35.91488725 64.94948435 -35.90863609 58.72451973 C-35.9025855 52.86323476 -35.88258606 47.00216154 -35.85197449 41.14095497 C-35.84319396 38.99198629 -35.83947171 36.84298995 -35.84124184 34.69400406 C-35.84289854 31.7541789 -35.82616107 28.81499625 -35.80497742 25.8752594 C-35.80982499 25.02990255 -35.81467257 24.18454571 -35.81966704 23.31357199 C-35.74190883 16.75022001 -34.61835008 10.44920547 -30.79296875 4.984375 C-22.0186174 -3.12433591 -10.84828963 -7.11279367 0 0 Z " transform="translate(268.40625,44.7109375)"/>
<path d="M0 0 C1.62810829 -0.00505081 3.25621102 -0.01228377 4.88430107 -0.02149814 C9.33867124 -0.040371 13.79248999 -0.02821491 18.24684596 -0.01077521 C23.0580765 0.00262214 27.8692276 -0.01284669 32.68045044 -0.02459717 C42.09733599 -0.04295959 51.5140138 -0.03447111 60.93089284 -0.01650894 C68.58410983 -0.00247514 76.23727049 0.00140817 83.89049911 -0.00195122 C84.98032676 -0.00242866 86.07015441 -0.0029061 87.19300713 -0.00339801 C89.40704396 -0.00442435 91.62108077 -0.00547971 93.83511756 -0.00656378 C113.40459542 -0.0151278 132.97397305 0.00153544 152.54342651 0.03126526 C171.53044849 0.06010983 190.51732613 0.06718205 209.50436401 0.05177307 C230.18577666 0.03501198 250.8671208 0.03097517 271.54853523 0.04848343 C273.7537504 0.05032781 275.95896557 0.05216253 278.16418076 0.0539875 C279.79165656 0.05535564 279.79165656 0.05535564 281.45201067 0.05675141 C289.09673311 0.06235676 296.7414221 0.05904971 304.38614273 0.05244255 C313.70133301 0.04471116 323.01638122 0.05145527 332.33154286 0.07661759 C337.08394971 0.08911614 341.83613533 0.09525472 346.58855057 0.08407593 C350.9396962 0.07403423 355.29040064 0.08249163 359.64149259 0.10565711 C361.21466946 0.11081572 362.78788587 0.10925575 364.36104549 0.10026246 C374.12668337 0.04908326 381.10887673 0.37516914 388.70602417 7.12818909 C389.42789917 7.95318909 390.14977417 8.77818909 390.89352417 9.62818909 C391.72883667 10.55631409 391.72883667 10.55631409 392.58102417 11.50318909 C396.41224984 17.70612589 396.16516282 23.72167456 394.89352417 30.62818909 C393.83102417 33.75318909 393.83102417 33.75318909 392.89352417 35.62818909 C392.23352417 35.62818909 391.57352417 35.62818909 390.89352417 35.62818909 C390.70789917 36.18506409 390.52227417 36.74193909 390.33102417 37.31568909 C387.72327833 41.51075849 383.52228368 44.08526925 378.89352417 45.62818909 C376.71811339 45.7247232 374.53979758 45.75915775 372.36224842 45.76241016 C371.69258768 45.76476239 371.02292694 45.76711462 370.33297345 45.76953813 C368.0729336 45.77623305 365.81295117 45.77576976 363.55290222 45.77536011 C361.92259276 45.77865843 360.29228411 45.78238392 358.66197652 45.78650159 C354.16917501 45.79653334 349.67638687 45.80024027 345.18357575 45.8028909 C340.34293366 45.80679046 335.50230219 45.81636902 330.66166687 45.82510376 C318.96533779 45.84487782 307.26900782 45.85493548 295.5726662 45.86383155 C290.06721886 45.86821283 284.56177249 45.87358004 279.05632591 45.87882042 C260.75943991 45.89583348 242.46255451 45.9103283 224.16566181 45.91756916 C219.41617647 45.91947911 214.66669113 45.92139944 209.91720581 45.9233551 C208.14647312 45.92408071 208.14647312 45.92408071 206.33996805 45.92482098 C187.21108159 45.93312366 168.08225761 45.95846427 148.95339844 45.99093578 C129.32268815 46.02398804 109.69200964 46.04201626 90.06127137 46.0452134 C79.03589294 46.04738017 68.01060563 46.05615332 56.98525429 46.08167458 C47.59672526 46.10335651 38.20830949 46.11144434 28.81975827 46.10170779 C24.0289024 46.09715586 19.23828033 46.09910122 14.44745636 46.11846924 C10.06090459 46.13604986 5.67475807 46.13514478 1.28820231 46.11957195 C-0.29798205 46.11718811 -1.88419409 46.12155958 -3.47033604 46.1334006 C-12.64363903 46.19763557 -19.72788307 46.06632064 -27.09475708 39.98756409 C-31.40088347 34.75415974 -33.75569154 29.90217575 -34.48147583 23.12818909 C-33.75302507 16.3293153 -31.42257377 10.18355479 -26.10647583 5.62818909 C-17.95101792 -0.12609937 -9.58524972 -0.07850118 0 0 Z " transform="translate(75.10647583007813,403.37181091308594)"/>
</svg>
